<svg xmlns="http://www.w3.org/2000/svg" viewBox="0 0 512 512">
<path fill="#0277bd" d="M256,22l194,77.6c3.27,1.31,5.34,4.52,5.18,8.02c-5.83,124.63-54,233.15-139.73,313.43 c-30.82,28.87-43.21,39.06-56.55,50c-1.74,1.43-4.05,1.43-5.79,0c-13.34-10.94-25.73-21.13-56.55-50 C110.82,332.77,62.65,224.25,56.81,99.62c-0.16-3.51,1.91-6.72,5.18-8.02L256,22z"/>
<path fill="#29b6f6" d="M256,22V471.05c13.34-10.94,25.73-21.13,56.55-50C398.28,340.77,446.45,232.25,455.18,99.62 c0.16-3.51-1.91-6.72-5.18-8.02L256,22z"/>
<path fill="#ffffff" opacity="0.4" d="M369.3,165.7c-50.5-27-105.7-18-144,38.8c46.7,21.8,97.3,37.6,144,38.8 C375.2,216,375.2,185.3,369.3,165.7z"/>
</svg>
